<?xml version="1.0" standalone="no"?>
<!DOCTYPE svg PUBLIC "-//W3C//DTD SVG 20010904//EN"
 "http://www.w3.org/TR/2001/REC-SVG-20010904/DTD/svg10.dtd">
<svg version="1.0" xmlns="http://www.w3.org/2000/svg"
 width="260.000000pt" height="260.000000pt" viewBox="0 0 260.000000 260.000000"
 preserveAspectRatio="xMidYMid meet">
<metadata>
Created by potrace 1.14, written by Peter Selinger 2001-2017
</metadata>
<g transform="translate(0.000000,260.000000) scale(0.100000,-0.100000)"
fill="#000000" stroke="none">
<path d="M1766 2584 c-5 -14 -4 -15 9 -4 17 14 19 20 6 20 -5 0 -12 -7 -15
-16z"/>
<path d="M1980 2589 c0 -5 5 -7 10 -4 6 3 10 8 10 11 0 2 -4 4 -10 4 -5 0 -10
-5 -10 -11z"/>
<path d="M1975 2561 c-3 -5 -1 -12 5 -16 5 -3 10 1 10 9 0 18 -6 21 -15 7z"/>
<path d="M1789 2390 c-41 -82 -79 -150 -86 -150 -6 0 -17 -16 -24 -34 -7 -19
-16 -33 -21 -30 -4 3 -15 -10 -24 -29 -11 -23 -22 -33 -33 -30 -16 4 -47 -42
-53 -82 -2 -14 -11 -20 -28 -20 -21 0 -26 -7 -34 -43 -7 -29 -15 -42 -27 -42
-18 0 -39 -46 -39 -88 0 -16 -4 -22 -14 -19 -15 6 -56 -83 -56 -121 0 -13 -6
-22 -15 -22 -19 0 -35 -40 -35 -86 0 -22 -5 -34 -14 -34 -16 0 -26 -43 -26
-116 0 -47 -2 -54 -20 -54 -17 0 -20 -7 -20 -44 0 -72 -10 -104 -30 -99 -20 5
-30 -30 -30 -108 0 -35 -4 -49 -14 -49 -16 0 -30 -75 -20 -114 4 -16 1 -32 -6
-41 -10 -11 -11 -40 -7 -105 4 -53 3 -90 -2 -90 -14 0 -23 35 -26 99 -4 96
-20 185 -37 211 -11 17 -20 67 -28 155 -6 72 -15 159 -20 195 -5 36 -10 72
-11 80 -2 54 -12 90 -25 90 -9 0 -14 11 -14 29 0 44 -20 91 -39 91 -13 0 -20
13 -27 53 -7 39 -14 54 -31 62 -15 6 -23 18 -23 33 0 34 -18 62 -35 56 -10 -4
-15 0 -15 11 0 23 -41 95 -51 89 -8 -5 -124 194 -150 261 -9 22 -23 40 -30 40
-18 0 -15 -66 10 -205 32 -175 34 -200 18 -200 -16 0 -11 -35 12 -93 14 -36
14 -37 -3 -37 -11 0 -11 -9 -3 -45 6 -25 14 -45 19 -45 4 0 8 -7 8 -15 0 -8
-5 -15 -10 -15 -6 0 -3 -16 6 -37 9 -21 18 -64 19 -95 2 -32 10 -72 19 -89 12
-23 13 -35 5 -40 -13 -8 -3 -66 15 -86 34 -39 35 -41 20 -47 -20 -7 -9 -51 23
-94 14 -18 22 -40 19 -48 -6 -16 29 -94 47 -105 5 -4 7 -14 4 -24 -7 -17 11
-52 49 -95 12 -14 24 -36 27 -50 6 -24 23 -45 106 -132 19 -21 32 -40 29 -44
-8 -7 -88 33 -88 45 0 11 -46 31 -72 31 -12 0 -30 7 -39 16 -10 9 -35 18 -56
20 -72 7 -128 20 -186 44 -44 18 -60 21 -66 12 -6 -9 -15 -10 -39 -1 -18 6
-39 8 -48 5 -9 -3 -34 -1 -56 6 -24 7 -42 8 -46 2 -4 -5 -59 -10 -122 -12 -83
-2 -119 -7 -129 -17 -13 -13 -8 -17 35 -35 75 -32 128 -61 141 -77 11 -14 28
-25 96 -60 20 -11 26 -20 22 -33 -4 -14 3 -20 40 -31 31 -9 45 -19 45 -31 0
-18 59 -36 79 -24 5 3 11 -1 13 -11 3 -14 20 -17 136 -18 73 -1 135 2 138 7 3
5 12 4 19 -2 9 -8 32 -8 77 -1 111 17 148 21 148 16 0 -3 -26 -17 -57 -31
-115 -52 -123 -56 -123 -70 0 -7 -11 -16 -25 -20 -14 -3 -25 -10 -25 -14 0 -5
-13 -24 -30 -42 -16 -18 -30 -37 -30 -42 0 -5 -6 -17 -14 -25 -25 -28 -78
-181 -63 -181 2 0 29 24 59 52 74 72 103 94 172 130 33 16 65 35 72 42 6 6 36
30 65 53 30 23 63 56 74 73 25 38 35 38 35 1 0 -16 4 -31 9 -33 5 -1 22 -25
38 -53 16 -27 34 -50 39 -50 20 0 174 -166 198 -214 31 -61 42 -68 50 -36 8
30 -30 219 -44 223 -6 2 -10 12 -10 21 0 10 -13 35 -30 56 -48 61 -41 68 25
29 29 -16 52 -23 65 -19 11 3 20 3 20 -2 0 -13 59 -45 70 -38 5 3 28 -4 51
-16 29 -14 44 -17 49 -10 4 8 17 7 43 -4 45 -19 47 -19 47 0 0 11 5 12 26 5
38 -15 74 -12 74 5 0 11 10 13 50 8 42 -5 50 -3 50 11 0 12 10 16 41 16 32 0
42 4 46 19 5 20 20 23 171 37 39 4 72 10 72 15 0 17 -68 56 -129 74 -34 10
-65 24 -68 31 -5 15 -71 39 -80 30 -4 -3 -13 4 -21 15 -12 17 -22 20 -53 16
-31 -4 -39 -2 -39 10 0 13 -10 15 -50 11 -39 -4 -50 -2 -50 10 0 15 -45 14
-82 -3 -13 -5 -18 -3 -18 9 0 17 -26 20 -70 7 -14 -4 -33 -3 -42 3 -12 7 -26
7 -47 0 -38 -15 -63 -1 -30 16 13 7 28 19 32 26 5 9 27 14 62 14 44 0 56 4 65
20 6 11 14 19 18 16 11 -6 72 21 72 33 0 5 23 12 51 16 29 4 53 13 56 21 3 9
20 14 45 14 46 0 78 15 78 35 0 8 5 15 12 15 7 0 32 7 55 16 38 15 42 19 36
42 -4 18 -2 23 6 18 6 -4 27 2 47 14 25 16 33 27 29 40 -4 12 0 20 13 24 36
12 82 52 71 63 -7 7 1 17 25 33 20 12 36 29 36 38 1 22 78 81 168 128 40 21
72 41 72 45 0 31 -150 35 -208 6 -18 -8 -25 -8 -31 1 -7 12 -52 4 -93 -18 -11
-6 -18 -5 -22 5 -7 19 -29 19 -68 -1 -23 -12 -32 -13 -38 -4 -8 13 -58 -8 -92
-38 -16 -13 -18 -13 -24 1 -8 21 -57 4 -84 -30 -16 -20 -21 -22 -26 -10 -8 21
-40 10 -68 -24 -16 -19 -30 -26 -44 -23 -13 4 -30 -5 -55 -29 -27 -27 -37 -33
-47 -24 -9 9 -21 2 -50 -31 -24 -27 -43 -40 -53 -36 -15 5 -57 -42 -70 -78 -4
-10 -12 -15 -20 -12 -9 3 -29 -13 -53 -42 -22 -26 -51 -60 -66 -76 -15 -16
-33 -45 -40 -64 -6 -19 -16 -34 -21 -34 -11 0 0 35 24 74 11 17 19 45 19 62 0
22 16 51 55 101 30 39 55 74 55 78 0 4 24 32 53 62 28 29 52 57 52 61 0 4 9
17 20 29 29 32 78 123 66 123 -17 0 -13 13 12 40 41 45 63 83 49 88 -19 6 -14
20 23 59 40 42 53 72 35 83 -9 5 -6 19 10 51 36 69 41 97 22 109 -13 7 -14 12
-5 18 14 9 43 74 43 97 0 8 -7 15 -15 15 -13 0 -12 6 5 40 24 47 26 70 5 70
-19 0 -19 3 5 50 24 47 25 70 5 70 -8 0 -15 2 -15 4 0 2 7 20 15 39 8 20 15
53 16 74 0 21 10 85 22 143 21 101 24 160 8 160 -4 0 -41 -67 -82 -150z"/>
<path d="M1980 2483 c-3 -23 -2 -39 3 -34 5 5 7 24 5 42 -3 33 -4 33 -8 -8z"/>
<path d="M1712 2480 c-18 -29 -15 -38 4 -12 9 13 14 25 12 27 -2 2 -9 -5 -16
-15z"/>
<path d="M1680 2451 c0 -6 4 -13 10 -16 6 -3 7 1 4 9 -7 18 -14 21 -14 7z"/>
<path d="M528 2433 c7 -3 16 -2 19 1 4 3 -2 6 -13 5 -11 0 -14 -3 -6 -6z"/>
<path d="M565 2429 c-4 -6 -4 -13 -1 -16 3 -4 6 -1 6 5 0 6 8 13 18 15 15 4
15 5 0 6 -9 0 -20 -4 -23 -10z"/>
<path d="M1611 2423 c-7 -8 -10 -17 -7 -20 9 -9 29 13 25 25 -2 6 -10 3 -18
-5z"/>
<path d="M1971 2414 c0 -11 3 -14 6 -6 3 7 2 16 -1 19 -3 4 -6 -2 -5 -13z"/>
<path d="M486 2401 c-3 -4 6 -6 19 -3 14 2 25 6 25 8 0 8 -39 4 -44 -5z"/>
<path d="M622 2394 c-7 -8 -8 -14 -3 -14 10 0 25 19 20 25 -2 1 -10 -3 -17
-11z"/>
<path d="M1656 2395 c-11 -8 -17 -22 -14 -33 6 -20 -18 -60 -28 -49 -4 4 -1
13 6 22 7 8 8 15 2 15 -15 0 -24 -32 -12 -44 16 -16 52 31 44 56 -4 14 0 21
15 25 12 3 21 9 21 14 0 13 -12 11 -34 -6z"/>
<path d="M1980 2375 c0 -8 4 -15 10 -15 5 0 7 7 4 15 -4 8 -8 15 -10 15 -2 0
-4 -7 -4 -15z"/>
<path d="M427 2373 c-4 -3 -7 -11 -7 -17 0 -6 5 -5 12 2 6 6 9 14 7 17 -3 3
-9 2 -12 -2z"/>
<path d="M631 2363 c-1 -18 13 -23 29 -11 12 8 12 9 -2 5 -9 -3 -19 -1 -22 6
-3 9 -5 9 -5 0z"/>
<path d="M1961 2344 c0 -11 3 -14 6 -6 3 7 2 16 -1 19 -3 4 -6 -2 -5 -13z"/>
<path d="M661 2314 c0 -11 3 -14 6 -6 3 7 2 16 -1 19 -3 4 -6 -2 -5 -13z"/>
<path d="M692 2308 c-7 -7 -12 -16 -12 -21 0 -5 7 -1 16 8 9 9 14 18 12 20 -2
3 -10 -1 -16 -7z"/>
<path d="M1950 2294 c0 -14 -5 -35 -11 -47 -10 -21 -10 -21 5 -3 15 18 23 76
11 76 -3 0 -5 -12 -5 -26z"/>
<path d="M1982 2290 c0 -19 2 -27 5 -17 2 9 2 25 0 35 -3 9 -5 1 -5 -18z"/>
<path d="M421 2295 c1 -19 18 -51 18 -35 0 8 -4 22 -9 30 -5 8 -9 11 -9 5z"/>
<path d="M707 2259 c4 -13 8 -18 11 -10 2 7 -1 18 -6 23 -8 8 -9 4 -5 -13z"/>
<path d="M680 2261 c0 -6 4 -13 10 -16 6 -3 7 1 4 9 -7 18 -14 21 -14 7z"/>
<path d="M1530 2250 c0 -5 5 -10 10 -10 6 0 10 5 10 10 0 6 -4 10 -10 10 -5 0
-10 -4 -10 -10z"/>
<path d="M1958 2230 c-7 -24 -3 -38 8 -28 3 4 4 17 2 30 l-3 23 -7 -25z"/>
<path d="M420 2187 c0 -20 4 -37 10 -37 5 0 7 14 3 33 -8 45 -13 47 -13 4z"/>
<path d="M1521 2201 c-1 -20 1 -21 14 -11 16 14 21 25 6 16 -5 -4 -12 0 -14 6
-3 7 -6 2 -6 -11z"/>
<path d="M733 2165 c22 -34 37 -44 37 -25 0 6 -5 10 -11 10 -7 0 -9 10 -5 28
5 21 4 24 -4 12 -9 -11 -13 -12 -17 -2 -2 6 -9 12 -13 12 -5 0 1 -16 13 -35z"/>
<path d="M402 2170 c0 -14 2 -19 5 -12 2 6 2 18 0 25 -3 6 -5 1 -5 -13z"/>
<path d="M776 2182 c-3 -6 -1 -12 6 -14 9 -3 9 -12 -1 -37 -11 -25 -11 -35 -2
-44 10 -9 12 -8 10 8 -1 11 1 33 6 48 8 29 -7 59 -19 39z"/>
<path d="M1490 2168 c-12 -22 -12 -22 6 -6 10 10 15 20 12 24 -4 3 -12 -5 -18
-18z"/>
<path d="M446 2144 c-4 -9 -4 -19 -1 -22 2 -3 7 3 11 12 4 9 4 19 1 22 -2 3
-7 -3 -11 -12z"/>
<path d="M1465 2131 c-3 -6 -11 -9 -16 -5 -5 3 -9 2 -8 -3 3 -20 -2 -27 -11
-13 -5 8 -12 12 -15 9 -3 -4 1 -11 8 -18 11 -9 20 -7 38 8 13 11 21 22 18 26
-4 3 -10 1 -14 -4z"/>
<path d="M801 2104 c0 -11 3 -14 6 -6 3 7 2 16 -1 19 -3 4 -6 -2 -5 -13z"/>
<path d="M830 2107 c0 -15 27 -43 34 -36 3 2 -4 15 -15 28 -13 16 -19 18 -19
8z"/>
<path d="M402 2070 c0 -19 2 -27 5 -17 2 9 2 25 0 35 -3 9 -5 1 -5 -18z"/>
<path d="M452 2080 c0 -14 2 -19 5 -12 2 6 2 18 0 25 -3 6 -5 1 -5 -13z"/>
<path d="M818 2048 c10 -18 25 -44 32 -58 l13 -24 9 23 c10 28 1 64 -13 55 -6
-4 -6 -11 2 -20 6 -8 9 -17 6 -20 -3 -4 -14 11 -24 32 -10 21 -24 39 -31 42
-8 3 -7 -7 6 -30z"/>
<path d="M1392 2064 c-7 -8 -11 -18 -8 -23 3 -5 -1 -14 -9 -21 -8 -7 -15 -17
-15 -23 0 -5 9 -2 20 8 11 10 20 26 20 35 0 9 5 21 12 28 7 7 8 12 3 12 -6 -1
-16 -7 -23 -16z"/>
<path d="M424 2005 c-9 -22 9 -38 35 -30 20 6 30 35 12 35 -5 0 -16 3 -25 6
-10 4 -18 0 -22 -11z"/>
<path d="M1281 1944 c0 -11 3 -14 6 -6 3 7 2 16 -1 19 -3 4 -6 -2 -5 -13z"/>
<path d="M1300 1940 c0 -11 2 -20 4 -20 2 0 6 9 9 20 3 11 1 20 -4 20 -5 0 -9
-9 -9 -20z"/>
<path d="M1330 1943 c0 -10 -8 -32 -19 -49 -10 -17 -22 -41 -25 -55 -4 -13 6
-1 22 27 33 58 45 94 31 94 -5 0 -9 -8 -9 -17z"/>
<path d="M910 1928 c0 -7 5 -20 10 -28 8 -12 10 -11 10 7 0 12 -4 25 -10 28
-5 3 -10 0 -10 -7z"/>
<path d="M453 1880 c0 -30 2 -43 4 -27 2 15 2 39 0 55 -2 15 -4 2 -4 -28z"/>
<path d="M410 1886 c0 -14 5 -26 10 -26 6 0 10 9 10 19 0 11 -4 23 -10 26 -6
4 -10 -5 -10 -19z"/>
<path d="M930 1876 c0 -2 7 -9 15 -16 9 -7 15 -8 15 -2 0 5 -7 12 -15 16 -8 3
-15 4 -15 2z"/>
<path d="M981 1792 c-1 -7 10 -29 23 -48 21 -31 24 -33 29 -14 3 11 1 20 -5
20 -12 0 -33 21 -41 40 -4 10 -6 11 -6 2z"/>
<path d="M1005 1790 c3 -5 8 -10 11 -10 2 0 4 5 4 10 0 6 -5 10 -11 10 -5 0
-7 -4 -4 -10z"/>
<path d="M1031 1784 c0 -11 3 -14 6 -6 3 7 2 16 -1 19 -3 4 -6 -2 -5 -13z"/>
<path d="M1250 1780 c-6 -11 -7 -20 -2 -20 6 0 12 9 15 20 3 11 3 20 1 20 -2
0 -8 -9 -14 -20z"/>
<path d="M1900 1762 c0 -15 -5 -33 -11 -39 -8 -8 -8 -19 0 -40 11 -28 11 -28
5 6 -4 23 -3 31 5 27 7 -5 11 6 11 33 0 23 -2 41 -5 41 -3 0 -5 -13 -5 -28z"/>
<path d="M1220 1734 c0 -8 5 -12 10 -9 6 3 10 10 10 16 0 5 -4 9 -10 9 -5 0
-10 -7 -10 -16z"/>
<path d="M1202 1695 c0 -16 2 -22 5 -12 2 9 2 23 0 30 -3 6 -5 -1 -5 -18z"/>
<path d="M1031 1684 c0 -11 3 -14 6 -6 3 7 2 16 -1 19 -3 4 -6 -2 -5 -13z"/>
<path d="M491 1655 c0 -16 4 -50 8 -75 l8 -45 1 55 c0 30 -3 64 -8 75 -7 17
-9 16 -9 -10z"/>
<path d="M1866 1655 c-3 -9 -6 -24 -5 -33 0 -9 5 -4 10 12 9 32 6 48 -5 21z"/>
<path d="M1055 1630 c3 -5 8 -10 11 -10 2 0 4 5 4 10 0 6 -5 10 -11 10 -5 0
-7 -4 -4 -10z"/>
<path d="M1111 1625 c-1 -11 -4 -31 -7 -45 -5 -22 -4 -23 6 -7 6 10 9 30 7 45
-3 18 -5 20 -6 7z"/>
<path d="M1170 1590 c-11 -21 -20 -47 -20 -57 1 -10 10 4 20 31 11 27 25 53
32 58 10 6 10 8 1 8 -7 0 -22 -18 -33 -40z"/>
<path d="M1886 1615 c4 -8 8 -15 10 -15 2 0 4 7 4 15 0 8 -4 15 -10 15 -5 0
-7 -7 -4 -15z"/>
<path d="M1076 1611 c-4 -7 -5 -15 -2 -18 9 -9 19 4 14 18 -4 11 -6 11 -12 0z"/>
<path d="M1141 1604 c0 -11 3 -14 6 -6 3 7 2 16 -1 19 -3 4 -6 -2 -5 -13z"/>
<path d="M1860 1589 c0 -5 5 -7 10 -4 6 3 10 8 10 11 0 2 -4 4 -10 4 -5 0 -10
-5 -10 -11z"/>
<path d="M482 1570 c0 -14 2 -19 5 -12 2 6 2 18 0 25 -3 6 -5 1 -5 -13z"/>
<path d="M1126 1563 c-6 -14 -5 -15 5 -6 7 7 10 15 7 18 -3 3 -9 -2 -12 -12z"/>
<path d="M1861 1558 c0 -10 -9 -27 -18 -39 -10 -11 -26 -30 -35 -41 -10 -12
-17 -30 -17 -42 1 -19 2 -19 6 -2 7 28 30 50 36 33 2 -6 3 -3 1 8 -2 11 6 29
17 41 12 13 19 30 16 41 -4 16 -5 16 -6 1z"/>
<path d="M1131 1491 c-1 -53 -1 -54 19 -36 11 10 20 28 19 39 0 19 -1 19 -11
-4 -11 -24 -12 -24 -18 15 -7 39 -7 39 -9 -14z"/>
<path d="M505 1519 c-11 -17 1 -21 15 -4 8 9 8 15 2 15 -6 0 -14 -5 -17 -11z"/>
<path d="M1080 1515 c0 -8 7 -15 16 -15 14 0 14 3 4 15 -7 8 -14 15 -16 15 -2
0 -4 -7 -4 -15z"/>
<path d="M1870 1490 c0 -5 5 -10 11 -10 5 0 7 5 4 10 -3 6 -8 10 -11 10 -2 0
-4 -4 -4 -10z"/>
<path d="M1091 1464 c0 -11 3 -14 6 -6 3 7 2 16 -1 19 -3 4 -6 -2 -5 -13z"/>
<path d="M522 1450 c0 -14 2 -19 5 -12 2 6 2 18 0 25 -3 6 -5 1 -5 -13z"/>
<path d="M1115 1432 c2 -24 6 -46 9 -50 9 -8 5 39 -4 68 -7 19 -8 15 -5 -18z"/>
<path d="M1808 1394 c-2 -33 -9 -50 -22 -58 -14 -8 -20 -8 -23 1 -7 19 -28 -6
-30 -36 -1 -13 -8 -28 -15 -32 -22 -14 -4 -16 22 -2 14 7 19 13 13 13 -7 0
-13 5 -13 11 0 6 8 8 19 4 11 -3 22 -1 26 5 3 5 20 10 36 10 17 0 28 4 25 9
-3 4 -18 6 -33 4 -26 -4 -27 -3 -10 10 20 16 43 82 25 71 -6 -4 -8 1 -3 15 3
12 2 21 -4 21 -5 0 -11 -21 -13 -46z m-18 -80 c0 -2 -12 -4 -26 -4 -14 0 -23
4 -20 9 6 8 46 4 46 -5z"/>
<path d="M2333 1423 c9 -2 25 -2 35 0 9 3 1 5 -18 5 -19 0 -27 -2 -17 -5z"/>
<path d="M2418 1423 c12 -2 32 -2 45 0 12 2 2 4 -23 4 -25 0 -35 -2 -22 -4z"/>
<path d="M493 1370 c0 -30 2 -43 4 -27 2 15 2 39 0 55 -2 15 -4 2 -4 -28z"/>
<path d="M530 1394 c0 -8 5 -12 10 -9 6 3 10 10 10 16 0 5 -4 9 -10 9 -5 0
-10 -7 -10 -16z"/>
<path d="M1776 1387 c-8 -31 -7 -39 3 -33 12 8 21 45 11 51 -4 3 -10 -5 -14
-18z"/>
<path d="M1090 1396 c0 -11 32 -78 35 -74 7 7 -18 78 -27 78 -4 0 -8 -2 -8 -4z"/>
<path d="M1890 1390 l-35 -7 32 -2 c17 0 35 4 38 9 3 6 5 9 3 9 -2 -1 -19 -5
-38 -9z"/>
<path d="M2074 1388 c8 -4 25 -4 38 1 20 8 18 9 -15 8 -24 -1 -32 -4 -23 -9z"/>
<path d="M512 1360 c0 -19 2 -27 5 -17 2 9 2 25 0 35 -3 9 -5 1 -5 -18z"/>
<path d="M1920 1365 c-16 -9 -19 -14 -9 -15 8 0 24 7 35 15 24 18 7 19 -26 0z"/>
<path d="M1990 1370 c0 -5 7 -7 15 -4 8 4 15 8 15 10 0 2 -7 4 -15 4 -8 0 -15
-4 -15 -10z"/>
<path d="M1847 1339 c8 -8 16 -8 30 0 16 9 14 10 -11 11 -22 0 -27 -3 -19 -11z"/>
<path d="M530 1330 c0 -5 5 -10 11 -10 5 0 7 5 4 10 -3 6 -8 10 -11 10 -2 0
-4 -4 -4 -10z"/>
<path d="M571 1245 c0 -11 -4 -31 -7 -45 -5 -19 -4 -22 5 -14 7 6 11 26 8 45
-2 19 -5 25 -6 14z"/>
<path d="M2580 1190 c-9 -6 -10 -10 -3 -10 6 0 15 5 18 10 8 12 4 12 -15 0z"/>
<path d="M2530 1176 c0 -2 7 -7 16 -10 8 -3 12 -2 9 4 -6 10 -25 14 -25 6z"/>
<path d="M2510 1151 c0 -5 -12 -11 -27 -15 -34 -7 -69 -33 -59 -43 10 -10 66
-12 66 -3 0 5 -4 12 -10 15 -15 9 -12 25 3 19 7 -2 22 4 32 16 10 11 13 20 7
20 -7 0 -12 -4 -12 -9z m-40 -51 c0 -5 -7 -10 -15 -10 -8 0 -15 5 -15 10 0 6
7 10 15 10 8 0 15 -4 15 -10z"/>
<path d="M591 1124 c0 -11 3 -14 6 -6 3 7 2 16 -1 19 -3 4 -6 -2 -5 -13z"/>
<path d="M2540 1119 c0 -5 5 -7 10 -4 6 3 10 8 10 11 0 2 -4 4 -10 4 -5 0 -10
-5 -10 -11z"/>
<path d="M561 1104 c0 -11 3 -14 6 -6 3 7 2 16 -1 19 -3 4 -6 -2 -5 -13z"/>
<path d="M612 1085 c0 -16 2 -22 5 -12 2 9 2 23 0 30 -3 6 -5 -1 -5 -18z"/>
<path d="M580 1090 c0 -5 5 -10 11 -10 5 0 7 5 4 10 -3 6 -8 10 -11 10 -2 0
-4 -4 -4 -10z"/>
<path d="M581 1044 c0 -11 3 -14 6 -6 3 7 2 16 -1 19 -3 4 -6 -2 -5 -13z"/>
<path d="M2378 1039 c-10 -5 -18 -16 -18 -24 0 -8 -17 -28 -38 -44 -39 -32
-80 -91 -64 -91 6 0 13 7 16 16 3 9 12 14 18 12 18 -6 41 19 34 37 -3 8 3 16
13 20 11 3 21 13 25 23 3 9 13 27 22 40 18 24 17 26 -8 11z m-58 -98 c0 -5 -7
-12 -16 -15 -14 -5 -15 -4 -4 9 14 17 20 19 20 6z"/>
<path d="M648 988 c3 -13 12 -29 19 -36 11 -11 13 -11 13 2 0 9 -4 16 -10 16
-5 0 -10 6 -10 14 0 8 -4 17 -9 20 -5 4 -6 -4 -3 -16z"/>
<path d="M640 940 c0 -6 7 -13 15 -16 8 -4 15 -12 15 -19 0 -7 7 -18 15 -25
12 -10 15 -10 15 4 0 9 -4 16 -8 16 -5 0 -15 11 -22 25 -14 25 -30 33 -30 15z"/>
<path d="M2355 940 c-3 -5 -1 -10 4 -10 6 0 11 5 11 10 0 6 -2 10 -4 10 -3 0
-8 -4 -11 -10z"/>
<path d="M598 893 c7 -3 16 -2 19 1 4 3 -2 6 -13 5 -11 0 -14 -3 -6 -6z"/>
<path d="M638 878 c5 -5 16 -8 23 -6 8 3 3 7 -10 11 -17 4 -21 3 -13 -5z"/>
<path d="M2221 866 c-9 -10 -8 -15 2 -19 8 -3 13 3 13 14 0 23 0 23 -15 5z"/>
<path d="M2180 822 c0 -4 -16 -16 -35 -26 -37 -20 -38 -36 -1 -36 16 0 27 10
39 35 9 19 12 35 7 35 -6 0 -10 -3 -10 -8z m-20 -42 c0 -5 -8 -10 -17 -10 -15
0 -16 2 -3 10 19 12 20 12 20 0z"/>
<path d="M2210 820 c0 -5 5 -10 10 -10 6 0 10 5 10 10 0 6 -4 10 -10 10 -5 0
-10 -4 -10 -10z"/>
<path d="M2060 750 c-13 -11 -20 -23 -16 -27 3 -4 13 2 22 13 15 18 15 17 9
-11 -9 -40 -11 -41 -34 -21 -10 10 -22 13 -25 8 -11 -18 71 -69 96 -59 7 3 2
6 -12 7 -23 1 -23 2 -5 10 17 7 17 9 3 9 -19 1 -26 41 -8 41 12 0 13 37 1 44
-4 3 -19 -3 -31 -14z"/>
<path d="M1946 701 c-16 -3 -32 -13 -34 -21 -4 -13 -3 -13 11 -2 10 8 25 11
38 7 14 -5 19 -3 15 3 -3 6 2 13 11 15 27 7 -7 6 -41 -2z"/>
<path d="M1952 669 c7 -5 25 -9 39 -9 15 0 32 -7 39 -15 7 -8 19 -15 26 -15
24 0 15 17 -16 30 -35 15 -109 22 -88 9z"/>
<path d="M20 660 c0 -5 21 -10 47 -10 55 0 54 5 -4 14 -27 4 -43 2 -43 -4z"/>
<path d="M0 640 c0 -5 5 -10 11 -10 5 0 7 5 4 10 -3 6 -8 10 -11 10 -2 0 -4
-4 -4 -10z"/>
<path d="M70 630 c-20 -12 -5 -24 16 -12 9 5 12 12 7 15 -5 3 -15 2 -23 -3z"/>
<path d="M2105 616 c17 -7 36 -20 43 -29 9 -11 24 -15 45 -11 26 3 28 2 12 -5
-14 -7 -15 -10 -5 -10 8 0 21 3 29 8 19 12 -21 25 -50 16 -16 -6 -20 -4 -14 6
5 8 5 11 1 7 -4 -3 -16 2 -27 13 -10 10 -29 19 -41 19 -20 -1 -19 -2 7 -14z"/>
<path d="M101 606 c10 -9 79 -14 74 -5 -4 5 -22 9 -42 9 -20 0 -34 -2 -32 -4z"/>
<path d="M2298 593 c7 -3 16 -2 19 1 4 3 -2 6 -13 5 -11 0 -14 -3 -6 -6z"/>
<path d="M160 571 c0 -9 30 -24 36 -18 2 1 -6 8 -16 15 -11 7 -20 8 -20 3z"/>
<path d="M201 577 c2 -1 14 -11 27 -21 12 -11 22 -16 22 -13 0 10 -31 37 -42
37 -6 0 -9 -1 -7 -3z"/>
<path d="M2238 553 c6 -2 18 -2 25 0 6 3 1 5 -13 5 -14 0 -19 -2 -12 -5z"/>
<path d="M2286 535 c7 -16 64 -48 72 -40 3 3 -9 11 -26 17 -18 7 -32 18 -32
25 0 7 -4 13 -10 13 -5 0 -7 -7 -4 -15z"/>
<path d="M240 499 c0 -5 5 -7 10 -4 6 3 10 8 10 11 0 2 -4 4 -10 4 -5 0 -10
-5 -10 -11z"/>
<path d="M280 491 c0 -5 -10 -11 -22 -14 -20 -3 -21 -5 -6 -11 11 -5 23 -2 33
7 17 18 19 27 5 27 -5 0 -10 -4 -10 -9z"/>
<path d="M310 469 c0 -5 4 -8 9 -5 5 4 11 0 14 -6 2 -7 8 -10 12 -6 4 4 4 11
0 17 -8 14 -35 14 -35 0z"/>
<path d="M2386 465 c-3 -9 -6 -22 -5 -28 0 -7 5 -1 10 12 5 13 8 26 5 28 -2 2
-6 -3 -10 -12z"/>
<path d="M278 443 c7 -3 16 -2 19 1 4 3 -2 6 -13 5 -11 0 -14 -3 -6 -6z"/>
<path d="M430 408 c19 -5 39 -14 45 -19 5 -5 25 -8 45 -8 l35 1 -35 7 c-19 4
-45 13 -57 19 -12 7 -32 12 -45 11 -17 -1 -14 -3 12 -11z"/>
<path d="M400 395 c0 -9 60 -33 65 -26 2 4 -11 13 -30 19 -19 5 -35 9 -35 7z"/>
<path d="M599 381 c31 -4 46 -12 51 -25 6 -17 7 -18 13 -3 3 9 2 17 -4 17 -6
0 -7 5 -4 10 4 6 -14 9 -47 8 l-53 -1 44 -6z"/>
<path d="M546 363 c6 -4 14 -15 17 -23 5 -11 6 -9 4 4 -1 11 -9 21 -17 23 -10
3 -11 2 -4 -4z"/>
<path d="M590 350 c0 -5 4 -10 9 -10 6 0 13 5 16 10 3 6 -1 10 -9 10 -9 0 -16
-4 -16 -10z"/>
<path d="M631 343 c-1 -12 -5 -25 -11 -28 -5 -3 -10 -16 -9 -28 0 -15 2 -17 6
-7 3 8 12 20 19 26 11 8 12 18 5 35 -9 23 -10 23 -10 2z"/>
<path d="M2361 329 c-13 -11 -21 -22 -18 -25 3 -3 15 4 27 16 28 28 22 34 -9
9z"/>
<path d="M2180 293 c0 -5 24 -7 52 -5 89 5 97 9 21 11 -40 0 -73 -2 -73 -6z"/>
<path d="M1077 268 c-22 -23 -15 -37 9 -18 13 12 17 11 24 0 5 -8 13 -11 17
-6 4 4 0 13 -9 20 -10 7 -15 16 -11 19 3 4 2 7 -3 6 -5 0 -17 -10 -27 -21z"/>
<path d="M2120 286 c0 -7 40 -14 44 -7 3 4 -6 8 -20 9 -13 1 -24 0 -24 -2z"/>
<path d="M2104 261 c-5 -5 -18 -11 -29 -14 l-20 -5 20 -1 c22 -1 52 15 44 23
-3 3 -10 2 -15 -3z"/>
<path d="M571 245 c0 -5 3 -15 7 -22 5 -9 12 -6 21 10 13 20 13 21 -1 9 -13
-10 -17 -10 -21 0 -3 7 -6 9 -6 3z"/>
<path d="M1035 230 c3 -5 8 -10 11 -10 2 0 4 5 4 10 0 6 -5 10 -11 10 -5 0 -7
-4 -4 -10z"/>
<path d="M2028 233 c7 -3 16 -2 19 1 4 3 -2 6 -13 5 -11 0 -14 -3 -6 -6z"/>
<path d="M1072 215 c-7 -8 -9 -15 -4 -15 5 0 15 7 22 15 16 19 -1 19 -18 0z"/>
<path d="M1125 219 c-11 -17 1 -21 15 -4 8 9 8 15 2 15 -6 0 -14 -5 -17 -11z"/>
<path d="M1010 216 c0 -2 7 -7 16 -10 8 -3 12 -2 9 4 -6 10 -25 14 -25 6z"/>
<path d="M1560 170 c3 -28 9 -50 14 -49 5 0 13 -5 18 -13 7 -9 8 -8 4 5 -3 10
-7 31 -7 45 -1 24 -3 23 -9 -8 -8 -32 -8 -31 -7 14 1 27 -3 51 -9 53 -6 2 -8
-16 -4 -47z"/>
<path d="M2058 213 c6 -2 18 -2 25 0 6 3 1 5 -13 5 -14 0 -19 -2 -12 -5z"/>
<path d="M571 184 c0 -11 3 -14 6 -6 3 7 2 16 -1 19 -3 4 -6 -2 -5 -13z"/>
<path d="M1797 189 c-10 -6 -25 -8 -33 -5 -9 3 -12 1 -9 -4 9 -14 37 -12 59 5
23 17 10 20 -17 4z"/>
<path d="M928 174 c-16 -8 -28 -17 -28 -19 0 -10 16 -4 40 15 30 23 25 25 -12
4z"/>
<path d="M1705 170 c-17 -6 -13 -9 20 -14 22 -4 51 -9 63 -12 15 -3 21 -1 17
6 -3 5 -24 10 -46 10 -24 0 -38 4 -34 10 7 11 7 11 -20 0z"/>
<path d="M1200 165 c0 -23 20 -38 51 -40 l32 -2 -22 18 c-13 11 -28 16 -33 13
-6 -4 -14 0 -19 7 -5 8 -9 10 -9 4z m45 -25 c3 -5 1 -10 -4 -10 -6 0 -11 5
-11 10 0 6 2 10 4 10 3 0 8 -4 11 -10z"/>
<path d="M929 143 c-13 -15 -12 -15 9 -4 23 12 28 21 13 21 -5 0 -15 -7 -22
-17z"/>
<path d="M1688 133 c7 -3 16 -2 19 1 4 3 -2 6 -13 5 -11 0 -14 -3 -6 -6z"/>
<path d="M1748 123 c6 -2 18 -2 25 0 6 3 1 5 -13 5 -14 0 -19 -2 -12 -5z"/>
<path d="M830 95 c-16 -19 -3 -19 30 0 24 13 24 14 4 15 -12 0 -27 -7 -34 -15z"/>
<path d="M1280 100 c0 -5 5 -10 11 -10 5 0 7 5 4 10 -3 6 -8 10 -11 10 -2 0
-4 -4 -4 -10z"/>
<path d="M1581 74 c0 -11 3 -14 6 -6 3 7 2 16 -1 19 -3 4 -6 -2 -5 -13z"/>
<path d="M780 55 c-8 -9 -8 -15 -2 -15 12 0 26 19 19 26 -2 2 -10 -2 -17 -11z"/>
<path d="M572 40 c0 -14 2 -19 5 -12 2 6 2 18 0 25 -3 6 -5 1 -5 -13z"/>
<path d="M1330 33 c0 -12 5 -25 11 -28 16 -11 17 -2 2 25 -12 24 -13 24 -13 3z"/>
<path d="M1584 35 c-3 -8 -4 -20 -2 -27 3 -7 7 -1 10 15 6 29 1 36 -8 12z"/>
<path d="M745 10 c-3 -5 -1 -10 4 -10 6 0 11 5 11 10 0 6 -2 10 -4 10 -3 0 -8
-4 -11 -10z"/>
</g>
</svg>
